<?xml version="1.0" encoding="UTF-8"?>
<svg xmlns="http://www.w3.org/2000/svg" viewBox="0 0 980 600" font-family="Helvetica, Arial, sans-serif">
  <defs>
    <marker id="arrow" viewBox="0 0 10 10" refX="9" refY="5" markerWidth="7" markerHeight="7" orient="auto-start-reverse">
      <path d="M0,0 L10,5 L0,10 z" fill="#37474F"/>
    </marker>
    <marker id="arrowSmall" viewBox="0 0 10 10" refX="9" refY="5" markerWidth="6" markerHeight="6" orient="auto-start-reverse">
      <path d="M0,0 L10,5 L0,10 z" fill="#546E7A"/>
    </marker>
    <filter id="boxshadow" x="-20%" y="-20%" width="140%" height="140%">
      <feDropShadow dx="0" dy="2" stdDeviation="2" flood-color="#000" flood-opacity="0.12"/>
    </filter>
    <linearGradient id="hwGrad" x1="0" y1="0" x2="0" y2="1">
      <stop offset="0%" stop-color="#E3F2FD"/>
      <stop offset="100%" stop-color="#BBDEFB"/>
    </linearGradient>
    <linearGradient id="regGrad" x1="0" y1="0" x2="0" y2="1">
      <stop offset="0%" stop-color="#F3E5F5"/>
      <stop offset="100%" stop-color="#E1BEE7"/>
    </linearGradient>
    <linearGradient id="busGrad" x1="0" y1="0" x2="0" y2="1">
      <stop offset="0%" stop-color="#FFF8E1"/>
      <stop offset="100%" stop-color="#FFECB3"/>
    </linearGradient>
  </defs>

  <text x="490" y="30" font-size="18" font-weight="700" fill="#0D47A1" text-anchor="middle">SMC PLIC — Top-Level Block Diagram</text>

  <!-- Source labels -->
  <text x="80" y="80"  font-size="11" font-weight="600" fill="#37474F" text-anchor="middle">Interrupt sources</text>
  <text x="80" y="95"  font-size="9.5" fill="#546E7A" text-anchor="middle">(level, active-high)</text>

  <text x="20"  y="135" font-family="ui-monospace, SFMono-Regular, Menlo, monospace" font-size="11">src_in[0]</text>
  <line x1="100" y1="131" x2="200" y2="131" stroke="#37474F" stroke-width="1.4" marker-end="url(#arrow)"/>

  <text x="20"  y="165" font-family="ui-monospace, SFMono-Regular, Menlo, monospace" font-size="11">src_in[1]</text>
  <line x1="100" y1="161" x2="200" y2="161" stroke="#37474F" stroke-width="1.4" marker-end="url(#arrow)"/>

  <text x="20"  y="195" font-family="ui-monospace, SFMono-Regular, Menlo, monospace" font-size="11">src_in[2]</text>
  <line x1="100" y1="191" x2="200" y2="191" stroke="#37474F" stroke-width="1.4" marker-end="url(#arrow)"/>

  <text x="55"  y="225" font-style="italic" font-size="13" fill="#90A4AE">⋮</text>

  <text x="20"  y="255" font-family="ui-monospace, SFMono-Regular, Menlo, monospace" font-size="11">src_in[N-1]</text>
  <line x1="100" y1="251" x2="200" y2="251" stroke="#37474F" stroke-width="1.4" marker-end="url(#arrow)"/>

  <!-- Gateway -->
  <g filter="url(#boxshadow)">
    <rect x="200" y="110" width="170" height="170" rx="8" ry="8"
          fill="url(#hwGrad)" stroke="#1565C0" stroke-width="2"/>
  </g>
  <text x="285" y="140" font-size="14" font-weight="700" fill="#0D47A1" text-anchor="middle">Gateway</text>
  <text x="285" y="160" font-size="11" fill="#1565C0" text-anchor="middle">+ Edge Latch</text>
  <line x1="225" y1="175" x2="345" y2="175" stroke="#90CAF9" stroke-width="1"/>
  <text x="285" y="198" font-size="10.5" fill="#1A237E" text-anchor="middle">rising edge sets</text>
  <text x="285" y="214" font-size="10.5" fill="#1A237E" text-anchor="middle" font-family="ui-monospace, SFMono-Regular, Menlo, monospace">pending[s]</text>
  <text x="285" y="240" font-size="10" fill="#37474F" text-anchor="middle">in-flight latch</text>
  <text x="285" y="256" font-size="10" fill="#37474F" text-anchor="middle">suppresses re-pend</text>

  <!-- gateway -> arbiter -->
  <line x1="370" y1="195" x2="430" y2="195" stroke="#37474F" stroke-width="1.6" marker-end="url(#arrow)"/>
  <text x="400" y="186" font-size="9.5" fill="#37474F" text-anchor="middle">pending[]</text>

  <!-- Arbiter -->
  <g filter="url(#boxshadow)">
    <rect x="430" y="110" width="200" height="170" rx="8" ry="8"
          fill="url(#hwGrad)" stroke="#1565C0" stroke-width="2"/>
  </g>
  <text x="530" y="140" font-size="14" font-weight="700" fill="#0D47A1" text-anchor="middle">Per-context Arbiter</text>
  <text x="530" y="158" font-size="10.5" fill="#1565C0" text-anchor="middle">(one path per context)</text>
  <line x1="450" y1="170" x2="610" y2="170" stroke="#90CAF9" stroke-width="1"/>
  <text x="530" y="190" font-size="10.5" fill="#1A237E" text-anchor="middle">filter:  enable[c] ∧ pending</text>
  <text x="530" y="208" font-size="10.5" fill="#1A237E" text-anchor="middle">priority &gt; threshold[c]</text>
  <text x="530" y="232" font-size="10.5" fill="#1A237E" text-anchor="middle">argmax (priority, −id)</text>
  <text x="530" y="250" font-size="10.5" fill="#37474F" text-anchor="middle">tie-break: lowest source ID</text>

  <!-- Outputs -->
  <text x="900" y="80"  font-size="11" font-weight="600" fill="#37474F" text-anchor="middle">Context outputs</text>
  <text x="900" y="95"  font-size="9.5" fill="#546E7A" text-anchor="middle">(active-high)</text>
  <line x1="630" y1="120" x2="800" y2="120" stroke="#37474F" stroke-width="1.4" marker-end="url(#arrow)"/>
  <text x="810" y="124" font-family="ui-monospace, SFMono-Regular, Menlo, monospace" font-size="11">ctx_out[0]</text>
  <text x="900" y="124" font-size="10" fill="#546E7A">→ MEIP[0]</text>
  <line x1="630" y1="140" x2="800" y2="140" stroke="#37474F" stroke-width="1.4" marker-end="url(#arrow)"/>
  <text x="810" y="144" font-family="ui-monospace, SFMono-Regular, Menlo, monospace" font-size="11">ctx_out[1]</text>
  <text x="900" y="144" font-size="10" fill="#546E7A">→ MEIP[1]</text>
  <line x1="630" y1="160" x2="800" y2="160" stroke="#37474F" stroke-width="1.4" marker-end="url(#arrow)"/>
  <text x="810" y="164" font-family="ui-monospace, SFMono-Regular, Menlo, monospace" font-size="11">ctx_out[2]</text>
  <text x="900" y="164" font-size="10" fill="#546E7A">→ MEIP[2]</text>
  <line x1="630" y1="180" x2="800" y2="180" stroke="#37474F" stroke-width="1.4" marker-end="url(#arrow)"/>
  <text x="810" y="184" font-family="ui-monospace, SFMono-Regular, Menlo, monospace" font-size="11">ctx_out[3]</text>
  <text x="900" y="184" font-size="10" fill="#546E7A">→ MEIP[3]</text>
  <line x1="630" y1="210" x2="800" y2="210" stroke="#37474F" stroke-width="1.4" marker-end="url(#arrow)"/>
  <text x="810" y="214" font-family="ui-monospace, SFMono-Regular, Menlo, monospace" font-size="11">ctx_out[4]</text>
  <text x="900" y="214" font-size="10" fill="#546E7A">→ SEIP[0]</text>
  <line x1="630" y1="230" x2="800" y2="230" stroke="#37474F" stroke-width="1.4" marker-end="url(#arrow)"/>
  <text x="810" y="234" font-family="ui-monospace, SFMono-Regular, Menlo, monospace" font-size="11">ctx_out[5]</text>
  <text x="900" y="234" font-size="10" fill="#546E7A">→ SEIP[1]</text>
  <line x1="630" y1="250" x2="800" y2="250" stroke="#37474F" stroke-width="1.4" marker-end="url(#arrow)"/>
  <text x="810" y="254" font-family="ui-monospace, SFMono-Regular, Menlo, monospace" font-size="11">ctx_out[6]</text>
  <text x="900" y="254" font-size="10" fill="#546E7A">→ SEIP[2]</text>
  <line x1="630" y1="270" x2="800" y2="270" stroke="#37474F" stroke-width="1.4" marker-end="url(#arrow)"/>
  <text x="810" y="274" font-family="ui-monospace, SFMono-Regular, Menlo, monospace" font-size="11">ctx_out[7]</text>
  <text x="900" y="274" font-size="10" fill="#546E7A">→ SEIP[3]</text>

  <!-- Register file -->
  <g filter="url(#boxshadow)">
    <rect x="200" y="340" width="430" height="100" rx="8" ry="8"
          fill="url(#regGrad)" stroke="#7B1FA2" stroke-width="2"/>
  </g>
  <text x="415" y="368" font-size="14" font-weight="700" fill="#4A148C" text-anchor="middle">Register File</text>
  <line x1="225" y1="380" x2="610" y2="380" stroke="#CE93D8" stroke-width="1"/>
  <text x="270" y="402" font-size="11" fill="#4A148C" text-anchor="middle" font-family="ui-monospace, SFMono-Regular, Menlo, monospace">PRIORITY[s]</text>
  <text x="370" y="402" font-size="11" fill="#4A148C" text-anchor="middle" font-family="ui-monospace, SFMono-Regular, Menlo, monospace">ENABLE[c][s]</text>
  <text x="470" y="402" font-size="11" fill="#4A148C" text-anchor="middle" font-family="ui-monospace, SFMono-Regular, Menlo, monospace">THRESHOLD[c]</text>
  <text x="570" y="402" font-size="11" fill="#4A148C" text-anchor="middle" font-family="ui-monospace, SFMono-Regular, Menlo, monospace">PENDING[s]</text>
  <text x="415" y="425" font-size="10" fill="#6A1B9A" text-anchor="middle">+ CLAIM/COMPLETE per context</text>

  <!-- regfile -> gateway / arbiter (state inputs) -->
  <path d="M 285,340 L 285,290" stroke="#7B1FA2" stroke-width="1.4" stroke-dasharray="4 3" fill="none" marker-end="url(#arrowSmall)"/>
  <path d="M 530,340 L 530,290" stroke="#7B1FA2" stroke-width="1.4" stroke-dasharray="4 3" fill="none" marker-end="url(#arrowSmall)"/>
  <text x="297" y="328" font-size="9" fill="#6A1B9A" text-anchor="start">in-flight</text>
  <text x="540" y="328" font-size="9" fill="#6A1B9A" text-anchor="start">priority/enable/threshold</text>

  <!-- TLM socket -->
  <g filter="url(#boxshadow)">
    <rect x="200" y="490" width="430" height="80" rx="8" ry="8"
          fill="url(#busGrad)" stroke="#EF6C00" stroke-width="2"/>
  </g>
  <text x="415" y="518" font-size="14" font-weight="700" fill="#E65100" text-anchor="middle">reg_socket  (TLM-2.0 target)</text>
  <text x="415" y="538" font-size="11" fill="#BF360C" text-anchor="middle">AXI4-Lite, 32-bit, 4-byte aligned   ·   4 MB window</text>
  <text x="415" y="556" font-size="10" fill="#E65100" text-anchor="middle">b_transport / transport_dbg   (DMI never granted)</text>

  <!-- bus <-> register file (bidirectional) -->
  <line x1="415" y1="490" x2="415" y2="440" stroke="#EF6C00" stroke-width="1.6"/>
  <polygon points="415,440 411,448 419,448" fill="#EF6C00"/>
  <polygon points="415,490 411,482 419,482" fill="#EF6C00"/>

  <!-- Reset -->
  <line x1="700" y1="530" x2="850" y2="530" stroke="#37474F" stroke-width="1.4" marker-end="url(#arrow)"/>
  <text x="700" y="522" font-family="ui-monospace, SFMono-Regular, Menlo, monospace" font-size="11" fill="#37474F">rst_n_i</text>
  <text x="700" y="548" font-size="9.5" fill="#546E7A">(active-low, sync)</text>
  <line x1="775" y1="530" x2="775" y2="445" stroke="#37474F" stroke-width="1.4" stroke-dasharray="3 2"/>

  <!-- Legend -->
  <g transform="translate(20,520)" font-size="10" fill="#37474F">
    <rect x="0"   y="0"  width="14" height="10" fill="url(#hwGrad)"  stroke="#1565C0"/>
    <text x="20"  y="9">datapath / arbiter</text>
    <rect x="0"   y="18" width="14" height="10" fill="url(#regGrad)" stroke="#7B1FA2"/>
    <text x="20"  y="27">register file (state)</text>
    <rect x="0"   y="36" width="14" height="10" fill="url(#busGrad)" stroke="#EF6C00"/>
    <text x="20"  y="45">bus interface</text>
  </g>
</svg>
